<svg width="166" height="166" viewBox="0 0 166 166" fill="none" xmlns="http://www.w3.org/2000/svg">
<rect x="0.5" y="0.5" width="165" height="165" rx="82.5" fill="#26262A"/>
<rect x="0.5" y="0.5" width="165" height="165" rx="82.5" stroke="#3F3F46"/>
<g clip-path="url(#clip0_1450_1300)">
<path d="M120.056 52H48.6189V114H120.056V52Z" fill="#F7F7F7"/>
<path d="M133.394 52H120.06V114H133.394V52Z" fill="#CECECE"/>
<path opacity="0.4" d="M52.8941 109.729L85.3511 94.8125H115.786V109.729H52.8941Z" fill="#8C8C8C"/>
<path opacity="0.2" d="M52.8941 109.727V56.2715H33.5V109.727H52.8941Z" fill="black"/>
<path opacity="0.9" d="M85.3531 94.8085V56.2715H52.8941V109.727L85.3531 94.8085Z" fill="#A0A0A0"/>
<path opacity="0.3" d="M115.783 56.2715H85.3471V94.8083H115.783V56.2715Z" fill="black"/>
<path d="M95.9104 75.7695L93.055 102.133H74.8664L72.0104 75.7695H95.9104Z" fill="url(#paint0_linear_1450_1300)"/>
<path d="M96.9642 72.877H70.9714V75.7673H96.9642V72.877Z" fill="white"/>
<path opacity="0.2" d="M85.5436 102.131H74.8756L72.0201 75.7673H70.9654V72.877H84.326V75.7673H82.1458L85.5436 102.131Z" fill="black"/>
<path d="M110.044 87.6116V90.5611H83.8878V87.6116C83.8872 85.4295 84.7533 83.3364 86.2955 81.7926C87.8378 80.2489 89.9304 79.3805 92.1126 79.3789H101.815C102.951 79.3788 104.074 79.6147 105.114 80.0711C106.153 80.5275 107.087 81.1947 107.855 82.0307C109.26 83.5496 110.042 85.5423 110.044 87.6116Z" fill="#E5B06A"/>
<path d="M110.047 92.6694V93.4851C110.045 93.6763 109.968 93.8592 109.833 93.994C109.697 94.1288 109.514 94.2046 109.323 94.2052H84.6024C84.4118 94.2041 84.2293 94.1278 84.0945 93.993C83.9597 93.8582 83.8834 93.6757 83.8823 93.4851V92.6694C83.8818 92.4786 83.9568 92.2951 84.091 92.1594C84.2251 92.0238 84.4076 91.9469 84.5984 91.9453H109.323C109.514 91.9464 109.698 92.0229 109.833 92.1584C109.969 92.294 110.046 92.4777 110.047 92.6694Z" fill="#4C2E18"/>
<path d="M110.039 95.5918V98.4288C110.039 98.7415 109.998 99.053 109.917 99.3551C109.715 100.148 109.255 100.851 108.609 101.354C107.963 101.857 107.168 102.13 106.35 102.131H87.5841C86.6038 102.131 85.6633 101.741 84.9701 101.048C84.277 100.355 83.888 99.415 83.888 98.4348V95.5918H110.039Z" fill="#E5B06A"/>
<path d="M108.675 91.9453L107.551 94.2032L106.859 95.5925L105.999 97.3181C105.675 96.6955 105.275 96.1159 104.807 95.5925C104.339 95.0704 103.812 94.604 103.237 94.2032C101.252 92.8865 98.9591 92.1086 96.583 91.9453H108.675Z" fill="#FFC36C"/>
<path opacity="0.1" d="M109.917 99.3551C109.715 100.148 109.255 100.851 108.609 101.353C107.963 101.856 107.168 102.13 106.35 102.131H87.5841C86.6038 102.131 85.6638 101.741 84.9706 101.048C84.2775 100.355 83.888 99.415 83.888 98.4348V95.5918H91.8713C97.5455 98.1306 103.701 99.4143 109.917 99.3551Z" fill="#606060"/>
<path opacity="0.1" d="M110.044 87.6116V90.5591C107.649 88.6887 105.397 87.0912 103.366 85.7287C99.8157 83.2753 96.05 81.1499 92.1147 79.3789H101.816C102.95 79.3785 104.073 79.6141 105.112 80.0706C106.151 80.5271 107.084 81.1945 107.851 82.0307H107.864C109.265 83.5515 110.043 85.5437 110.044 87.6116Z" fill="#606060"/>
</g>
<defs>
<linearGradient id="paint0_linear_1450_1300" x1="72.0104" y1="88.9514" x2="95.9104" y2="88.9514" gradientUnits="userSpaceOnUse">
<stop stop-color="#50BA84"/>
<stop offset="1" stop-color="#15ABD0"/>
</linearGradient>
<clipPath id="clip0_1450_1300">
<rect width="99" height="62" fill="white" transform="translate(33.5 52)"/>
</clipPath>
</defs>
</svg>
