<svg width="167" height="166" viewBox="0 0 167 166" fill="none" xmlns="http://www.w3.org/2000/svg">
<rect x="1" y="0.5" width="165" height="165" rx="82.5" fill="#26262A"/>
<rect x="1" y="0.5" width="165" height="165" rx="82.5" stroke="#3F3F46"/>
<path d="M116.202 55.1529V110.862C116.201 111.275 116.119 111.684 115.96 112.065C115.802 112.446 115.569 112.793 115.277 113.084C114.984 113.376 114.637 113.606 114.255 113.763C113.873 113.921 113.464 114.001 113.051 114H91.7422V52H113.051C113.886 52.0015 114.687 52.3343 115.278 52.9253C115.869 53.5163 116.201 54.3173 116.202 55.1529Z" fill="#FFD8BB"/>
<path d="M91.742 52V114H53.7179C53.1058 114 52.5069 113.822 51.994 113.488C51.5625 113.202 51.2086 112.814 50.9642 112.357C50.7197 111.901 50.5921 111.391 50.5931 110.874V55.1245C50.5941 54.2961 50.9237 53.502 51.5094 52.9163C52.0952 52.3305 52.8895 52.001 53.7179 52H91.742Z" fill="#F8C197"/>
<path d="M74.5101 52.0078V85.2307L67.1381 77.8587L59.9551 85.0417V52.0115L74.5101 52.0078Z" fill="#333333"/>
<path d="M123.304 96.3372V101.847C123.307 103.82 122.586 105.726 121.278 107.203C119.97 108.681 118.166 109.626 116.206 109.862C115.881 109.912 115.552 109.935 115.224 109.93H51.5809C51.2519 109.935 50.9231 109.912 50.5979 109.862C48.6389 109.626 46.8341 108.681 45.5259 107.203C44.2178 105.726 43.497 103.82 43.5 101.847V96.3372C43.497 94.3641 44.2178 92.4583 45.5259 90.9812C46.8341 89.504 48.6389 88.5581 50.5979 88.3226C50.9231 88.2726 51.2519 88.2498 51.5809 88.2545H115.224C115.552 88.2499 115.881 88.2726 116.206 88.3226C118.166 88.5581 119.97 89.504 121.278 90.9812C122.586 92.4583 123.307 94.3641 123.304 96.3372Z" fill="white"/>
<path d="M71.9728 97.7253L72.6041 98.8462L70.6818 99.5627L72.6041 100.279L71.9597 101.43L70.3606 100.168L70.6534 102.2H69.3624L69.6328 100.168L68.0336 101.459L67.3607 100.266L69.266 99.5495L67.3607 98.8633L68.0052 97.7121L69.6478 98.9748L69.3663 96.9297H70.6705L70.3643 98.9748L71.9728 97.7253Z" fill="#333333"/>
<path d="M80.164 97.7272L80.7953 98.8482L78.873 99.5647L80.7953 100.281L80.1487 101.432L78.5497 100.17L78.8446 102.202H77.5536L77.8219 100.17L76.2229 101.461L75.5498 100.268L77.459 99.5515L75.5498 98.8653L76.1963 97.7141L77.839 98.9767L77.5591 96.9316H78.8635L78.5534 98.9767L80.164 97.7272Z" fill="#333333"/>
<path d="M88.3556 97.7272L88.9869 98.8482L87.0646 99.5647L88.9869 100.281L88.3422 101.432L86.7432 100.17L87.0362 102.202H85.745L86.0136 100.17L84.4143 101.461L83.7415 100.268L85.6469 99.5515L83.7415 98.8653L84.3859 97.7141L86.0267 98.9767L85.7471 96.9316H87.0512L86.745 98.9767L88.3556 97.7272Z" fill="#333333"/>
<path d="M96.5456 97.7272L97.1789 98.8482L95.2564 99.5647L97.1789 100.281L96.5324 101.432L94.9331 100.17L95.228 102.202H93.937L94.2074 100.17L92.6081 101.461L91.9353 100.268L93.8445 99.5515L91.9353 98.8653L92.5818 97.7141L94.2224 98.9767L93.9409 96.9316H95.2451L94.937 98.9767L96.5456 97.7272Z" fill="#333333"/>
<path d="M104.738 97.7272L105.367 98.8482L103.445 99.5647L105.367 100.281L104.723 101.432L103.123 100.17L103.418 102.202H102.125L102.396 100.17L100.795 101.461L100.122 100.268L102.027 99.5515L100.122 98.8653L100.766 97.7141L102.409 98.9767L102.127 96.9316H103.431L103.125 98.9767L104.738 97.7272Z" fill="#333333"/>
<path d="M112.93 97.7253L113.561 98.8462L111.639 99.5627L113.561 100.279L112.914 101.43L111.315 100.168L111.61 102.2H110.319L110.588 100.168L108.989 101.459L108.315 100.266L110.225 99.5495L108.315 98.8633L108.962 97.7121L110.601 98.9748L110.321 96.9297H111.627L111.319 98.9748L112.93 97.7253Z" fill="#333333"/>
<path d="M58.8198 97.1047H58.0523V95.9081C58.0523 95.2221 57.7799 94.5642 57.295 94.079C56.8102 93.5938 56.1524 93.3208 55.4664 93.3203C54.7798 93.3228 54.122 93.5959 53.6355 94.0804C53.1489 94.5648 52.8728 95.2215 52.8673 95.9081V97.1047H52.1114C51.9297 97.1057 51.7558 97.1784 51.6273 97.3069C51.4988 97.4353 51.4262 97.6093 51.4252 97.791V103.017C51.4262 103.199 51.4988 103.373 51.6273 103.501C51.7558 103.63 51.9297 103.703 52.1114 103.704H58.8198C59.0018 103.703 59.1762 103.631 59.305 103.502C59.4339 103.374 59.5069 103.199 59.5079 103.017V97.791C59.5069 97.609 59.4339 97.4347 59.305 97.3062C59.1762 97.1777 59.0018 97.1052 58.8198 97.1047ZM57.1903 97.1047H53.7294V95.9081C53.7301 95.6807 53.7757 95.4559 53.8634 95.2461C53.9511 95.0363 54.0792 94.8456 54.2405 94.6854C54.4018 94.5251 54.5931 94.3984 54.8035 94.312C55.0138 94.2257 55.239 94.1816 55.4664 94.1824C55.6932 94.1816 55.9179 94.2258 56.1275 94.3123C56.3371 94.3988 56.5275 94.5259 56.6877 94.6863C56.848 94.8467 56.975 95.0373 57.0613 95.247C57.1476 95.4567 57.1913 95.6813 57.1903 95.9081V97.1047Z" fill="#333333"/>
</svg>
