<svg width="166" height="166" viewBox="0 0 166 166" fill="none" xmlns="http://www.w3.org/2000/svg">
<rect x="0.5" y="0.5" width="165" height="165" rx="82.5" fill="#26262A"/>
<rect x="0.5" y="0.5" width="165" height="165" rx="82.5" stroke="#3F3F46"/>
<path d="M108.645 55.1408V110.859C108.645 111.692 108.315 112.491 107.726 113.08C107.137 113.669 106.338 114 105.505 114H61.6216C60.7919 113.995 59.9981 113.662 59.4132 113.073C58.8284 112.485 58.5001 111.689 58.5001 110.859V55.1408C58.5001 54.3112 58.8284 53.5152 59.4132 52.9267C59.9981 52.3383 60.7919 52.0051 61.6216 52H105.505C106.338 52 107.137 52.3309 107.726 52.9199C108.315 53.5089 108.645 54.3078 108.645 55.1408Z" fill="#D8D8D8"/>
<path d="M100.729 62.8871C102.748 62.8871 104.385 61.2505 104.385 59.2316C104.385 57.2128 102.748 55.5762 100.729 55.5762C98.7106 55.5762 97.074 57.2128 97.074 59.2316C97.074 61.2505 98.7106 62.8871 100.729 62.8871Z" fill="#333333"/>
<path d="M73.8724 55.5762H61.9359V62.8871H73.8724V55.5762Z" fill="#333333"/>
<path opacity="0.3" d="M108.645 101.794V110.859C108.645 111.692 108.314 112.49 107.725 113.079C107.136 113.668 106.337 113.999 105.505 113.999H61.6214C60.7918 113.994 59.998 113.661 59.4131 113.073C58.8283 112.484 58.5 111.688 58.5 110.859V67.1152C65.024 76.7573 81.2407 96.2368 108.645 101.794Z" fill="#333333"/>
<path d="M83.569 106.382C93.7048 106.382 101.921 98.1658 101.921 88.0301C101.921 77.8944 93.7048 69.6777 83.569 69.6777C73.4333 69.6777 65.2167 77.8944 65.2167 88.0301C65.2167 98.1658 73.4333 106.382 83.569 106.382Z" fill="#333333"/>
<path d="M83.5729 101.007C90.7406 101.007 96.5512 95.1967 96.5512 88.029C96.5512 80.8613 90.7406 75.0508 83.5729 75.0508C76.4053 75.0508 70.5947 80.8613 70.5947 88.029C70.5947 95.1967 76.4053 101.007 83.5729 101.007Z" fill="#9CFAFF"/>
<path opacity="0.2" d="M94.6185 94.7994C93.466 96.6959 91.8443 98.2633 89.9096 99.3505C87.975 100.438 85.7928 101.008 83.5737 101.006C80.1331 101.005 76.8336 99.6381 74.4006 97.2054C71.9676 94.7728 70.6003 91.4735 70.5989 88.033C70.5963 85.8133 71.1641 83.6301 72.2479 81.693C73.3316 79.7559 74.8949 78.1299 76.7879 76.9707C75.5207 79.0067 74.8526 81.3582 74.8598 83.7563C74.861 85.4613 75.198 87.1494 75.8515 88.7242C76.5051 90.299 77.4624 91.7296 78.6688 92.9344C79.8753 94.1393 81.3071 95.0948 82.8827 95.7462C84.4584 96.3976 86.1469 96.7322 87.8519 96.7311C90.2439 96.7346 92.5888 96.0652 94.6185 94.7994Z" fill="#333333"/>
</svg>
