<svg width="167" height="166" viewBox="0 0 167 166" fill="none" xmlns="http://www.w3.org/2000/svg">
<g clip-path="url(#clip0_1450_925)">
<rect x="0.5" width="166" height="166" rx="83" fill="#26262A"/>
<g opacity="0.6" clip-path="url(#clip1_1450_925)">
<rect width="99" height="62" transform="translate(33.5 52)" fill="white"/>
<path d="M120.056 52H48.6189V114H120.056V52Z" fill="#F7F7F7"/>
<path d="M133.394 52H120.06V114H133.394V52Z" fill="#CECECE"/>
<path opacity="0.4" d="M52.8941 109.729L85.3511 94.8125H115.786V109.729H52.8941Z" fill="#8C8C8C"/>
<path opacity="0.2" d="M52.8941 109.727V56.2715H33.5V109.727H52.8941Z" fill="black"/>
<path opacity="0.9" d="M85.3531 94.8085V56.2715H52.8941V109.727L85.3531 94.8085Z" fill="#A0A0A0"/>
<path opacity="0.3" d="M115.783 56.2715H85.3471V94.8083H115.783V56.2715Z" fill="black"/>
<path d="M95.9104 75.7695L93.055 102.133H74.8664L72.0104 75.7695H95.9104Z" fill="url(#paint0_linear_1450_925)"/>
<path d="M96.9642 72.877H70.9714V75.7673H96.9642V72.877Z" fill="white"/>
<path opacity="0.2" d="M85.5436 102.131H74.8756L72.0201 75.7673H70.9654V72.877H84.326V75.7673H82.1458L85.5436 102.131Z" fill="black"/>
<path d="M110.044 87.6116V90.5611H83.8878V87.6116C83.8872 85.4295 84.7533 83.3364 86.2955 81.7926C87.8378 80.2489 89.9304 79.3805 92.1126 79.3789H101.815C102.951 79.3788 104.074 79.6147 105.114 80.0711C106.153 80.5275 107.087 81.1947 107.855 82.0307C109.26 83.5496 110.042 85.5423 110.044 87.6116Z" fill="#E5B06A"/>
<path d="M110.047 92.6694V93.4851C110.045 93.6763 109.968 93.8592 109.833 93.994C109.697 94.1288 109.514 94.2046 109.323 94.2052H84.6024C84.4118 94.2041 84.2293 94.1278 84.0945 93.993C83.9597 93.8582 83.8834 93.6757 83.8823 93.4851V92.6694C83.8818 92.4786 83.9568 92.2951 84.091 92.1594C84.2251 92.0238 84.4076 91.9469 84.5984 91.9453H109.323C109.514 91.9464 109.698 92.0229 109.833 92.1584C109.969 92.294 110.046 92.4777 110.047 92.6694Z" fill="#4C2E18"/>
<path d="M110.039 95.5918V98.4288C110.039 98.7415 109.998 99.053 109.917 99.3551C109.715 100.148 109.255 100.851 108.609 101.354C107.963 101.857 107.168 102.13 106.35 102.131H87.5841C86.6038 102.131 85.6633 101.741 84.9701 101.048C84.277 100.355 83.888 99.415 83.888 98.4348V95.5918H110.039Z" fill="#E5B06A"/>
<path d="M108.675 91.9453L107.551 94.2032L106.859 95.5925L105.999 97.3181C105.675 96.6955 105.275 96.1159 104.807 95.5925C104.339 95.0704 103.812 94.604 103.237 94.2032C101.252 92.8865 98.9591 92.1086 96.583 91.9453H108.675Z" fill="#FFC36C"/>
<path opacity="0.1" d="M109.917 99.3551C109.715 100.148 109.255 100.851 108.609 101.353C107.963 101.856 107.168 102.13 106.35 102.131H87.5841C86.6038 102.131 85.6638 101.741 84.9706 101.048C84.2775 100.355 83.888 99.415 83.888 98.4348V95.5918H91.8713C97.5455 98.1306 103.701 99.4143 109.917 99.3551Z" fill="#606060"/>
<path opacity="0.1" d="M110.044 87.6116V90.5591C107.649 88.6887 105.397 87.0912 103.366 85.7287C99.8157 83.2753 96.05 81.1499 92.1147 79.3789H101.816C102.95 79.3785 104.073 79.6141 105.112 80.0706C106.151 80.5271 107.084 81.1945 107.851 82.0307H107.864C109.265 83.5515 110.043 85.5437 110.044 87.6116Z" fill="#606060"/>
</g>
<rect width="229" height="36" transform="translate(-30.5 65)" fill="white"/>
<path d="M22.9396 82.7C22.9396 81.464 23.2156 80.36 23.7676 79.388C24.3316 78.404 25.0936 77.642 26.0536 77.102C27.0256 76.55 28.1116 76.274 29.3116 76.274C30.7156 76.274 31.9456 76.634 33.0016 77.354C34.0576 78.074 34.7956 79.07 35.2156 80.342H32.3176C32.0296 79.742 31.6216 79.292 31.0936 78.992C30.5776 78.692 29.9776 78.542 29.2936 78.542C28.5616 78.542 27.9076 78.716 27.3316 79.064C26.7676 79.4 26.3236 79.88 25.9996 80.504C25.6876 81.128 25.5316 81.86 25.5316 82.7C25.5316 83.528 25.6876 84.26 25.9996 84.896C26.3236 85.52 26.7676 86.006 27.3316 86.354C27.9076 86.69 28.5616 86.858 29.2936 86.858C29.9776 86.858 30.5776 86.708 31.0936 86.408C31.6216 86.096 32.0296 85.64 32.3176 85.04H35.2156C34.7956 86.324 34.0576 87.326 33.0016 88.046C31.9576 88.754 30.7276 89.108 29.3116 89.108C28.1116 89.108 27.0256 88.838 26.0536 88.298C25.0936 87.746 24.3316 86.984 23.7676 86.012C23.2156 85.04 22.9396 83.936 22.9396 82.7ZM41.796 89.162C40.836 89.162 39.972 88.952 39.204 88.532C38.436 88.1 37.83 87.494 37.386 86.714C36.954 85.934 36.738 85.034 36.738 84.014C36.738 82.994 36.96 82.094 37.404 81.314C37.86 80.534 38.478 79.934 39.258 79.514C40.038 79.082 40.908 78.866 41.868 78.866C42.828 78.866 43.698 79.082 44.478 79.514C45.258 79.934 45.87 80.534 46.314 81.314C46.77 82.094 46.998 82.994 46.998 84.014C46.998 85.034 46.764 85.934 46.296 86.714C45.84 87.494 45.216 88.1 44.424 88.532C43.644 88.952 42.768 89.162 41.796 89.162ZM41.796 86.966C42.252 86.966 42.678 86.858 43.074 86.642C43.482 86.414 43.806 86.078 44.046 85.634C44.286 85.19 44.406 84.65 44.406 84.014C44.406 83.066 44.154 82.34 43.65 81.836C43.158 81.32 42.552 81.062 41.832 81.062C41.112 81.062 40.506 81.32 40.014 81.836C39.534 82.34 39.294 83.066 39.294 84.014C39.294 84.962 39.528 85.694 39.996 86.21C40.476 86.714 41.076 86.966 41.796 86.966ZM61.2305 78.884C62.4545 78.884 63.4385 79.262 64.1825 80.018C64.9385 80.762 65.3165 81.806 65.3165 83.15V89H62.7965V83.492C62.7965 82.712 62.5985 82.118 62.2025 81.71C61.8065 81.29 61.2665 81.08 60.5825 81.08C59.8985 81.08 59.3525 81.29 58.9445 81.71C58.5485 82.118 58.3505 82.712 58.3505 83.492V89H55.8305V83.492C55.8305 82.712 55.6325 82.118 55.2365 81.71C54.8405 81.29 54.3005 81.08 53.6165 81.08C52.9205 81.08 52.3685 81.29 51.9605 81.71C51.5645 82.118 51.3665 82.712 51.3665 83.492V89H48.8465V79.028H51.3665V80.234C51.6905 79.814 52.1045 79.484 52.6085 79.244C53.1245 79.004 53.6885 78.884 54.3005 78.884C55.0805 78.884 55.7765 79.052 56.3885 79.388C57.0005 79.712 57.4745 80.18 57.8105 80.792C58.1345 80.216 58.6025 79.754 59.2145 79.406C59.8385 79.058 60.5105 78.884 61.2305 78.884ZM68.9858 77.84C68.5418 77.84 68.1698 77.702 67.8698 77.426C67.5818 77.138 67.4378 76.784 67.4378 76.364C67.4378 75.944 67.5818 75.596 67.8698 75.32C68.1698 75.032 68.5418 74.888 68.9858 74.888C69.4298 74.888 69.7958 75.032 70.0838 75.32C70.3838 75.596 70.5338 75.944 70.5338 76.364C70.5338 76.784 70.3838 77.138 70.0838 77.426C69.7958 77.702 69.4298 77.84 68.9858 77.84ZM70.2278 79.028V89H67.7078V79.028H70.2278ZM78.2436 78.884C79.4316 78.884 80.3916 79.262 81.1236 80.018C81.8556 80.762 82.2216 81.806 82.2216 83.15V89H79.7016V83.492C79.7016 82.7 79.5036 82.094 79.1076 81.674C78.7116 81.242 78.1716 81.026 77.4876 81.026C76.7916 81.026 76.2396 81.242 75.8316 81.674C75.4356 82.094 75.2376 82.7 75.2376 83.492V89H72.7176V79.028H75.2376V80.27C75.5736 79.838 75.9996 79.502 76.5156 79.262C77.0436 79.01 77.6196 78.884 78.2436 78.884ZM88.524 78.866C89.268 78.866 89.922 79.016 90.486 79.316C91.05 79.604 91.494 79.982 91.818 80.45V79.028H94.356V89.072C94.356 89.996 94.17 90.818 93.798 91.538C93.426 92.27 92.868 92.846 92.124 93.266C91.38 93.698 90.48 93.914 89.424 93.914C88.008 93.914 86.844 93.584 85.932 92.924C85.032 92.264 84.522 91.364 84.402 90.224H86.904C87.036 90.68 87.318 91.04 87.75 91.304C88.194 91.58 88.728 91.718 89.352 91.718C90.084 91.718 90.678 91.496 91.134 91.052C91.59 90.62 91.818 89.96 91.818 89.072V87.524C91.494 87.992 91.044 88.382 90.468 88.694C89.904 89.006 89.256 89.162 88.524 89.162C87.684 89.162 86.916 88.946 86.22 88.514C85.524 88.082 84.972 87.476 84.564 86.696C84.168 85.904 83.97 84.998 83.97 83.978C83.97 82.97 84.168 82.076 84.564 81.296C84.972 80.516 85.518 79.916 86.202 79.496C86.898 79.076 87.672 78.866 88.524 78.866ZM91.818 84.014C91.818 83.402 91.698 82.88 91.458 82.448C91.218 82.004 90.894 81.668 90.486 81.44C90.078 81.2 89.64 81.08 89.172 81.08C88.704 81.08 88.272 81.194 87.876 81.422C87.48 81.65 87.156 81.986 86.904 82.43C86.664 82.862 86.544 83.378 86.544 83.978C86.544 84.578 86.664 85.106 86.904 85.562C87.156 86.006 87.48 86.348 87.876 86.588C88.284 86.828 88.716 86.948 89.172 86.948C89.64 86.948 90.078 86.834 90.486 86.606C90.894 86.366 91.218 86.03 91.458 85.598C91.698 85.154 91.818 84.626 91.818 84.014ZM105.444 89.126C104.568 89.126 103.776 88.976 103.068 88.676C102.372 88.376 101.82 87.944 101.412 87.38C101.004 86.816 100.794 86.15 100.782 85.382H103.482C103.518 85.898 103.698 86.306 104.022 86.606C104.358 86.906 104.814 87.056 105.39 87.056C105.978 87.056 106.44 86.918 106.776 86.642C107.112 86.354 107.28 85.982 107.28 85.526C107.28 85.154 107.166 84.848 106.938 84.608C106.71 84.368 106.422 84.182 106.074 84.05C105.738 83.906 105.27 83.75 104.67 83.582C103.854 83.342 103.188 83.108 102.672 82.88C102.168 82.64 101.73 82.286 101.358 81.818C100.998 81.338 100.818 80.702 100.818 79.91C100.818 79.166 101.004 78.518 101.376 77.966C101.748 77.414 102.27 76.994 102.942 76.706C103.614 76.406 104.382 76.256 105.246 76.256C106.542 76.256 107.592 76.574 108.396 77.21C109.212 77.834 109.662 78.71 109.746 79.838H106.974C106.95 79.406 106.764 79.052 106.416 78.776C106.08 78.488 105.63 78.344 105.066 78.344C104.574 78.344 104.178 78.47 103.878 78.722C103.59 78.974 103.446 79.34 103.446 79.82C103.446 80.156 103.554 80.438 103.77 80.666C103.998 80.882 104.274 81.062 104.598 81.206C104.934 81.338 105.402 81.494 106.002 81.674C106.818 81.914 107.484 82.154 108 82.394C108.516 82.634 108.96 82.994 109.332 83.474C109.704 83.954 109.89 84.584 109.89 85.364C109.89 86.036 109.716 86.66 109.368 87.236C109.02 87.812 108.51 88.274 107.838 88.622C107.166 88.958 106.368 89.126 105.444 89.126ZM116.503 89.162C115.543 89.162 114.679 88.952 113.911 88.532C113.143 88.1 112.537 87.494 112.093 86.714C111.661 85.934 111.445 85.034 111.445 84.014C111.445 82.994 111.667 82.094 112.111 81.314C112.567 80.534 113.185 79.934 113.965 79.514C114.745 79.082 115.615 78.866 116.575 78.866C117.535 78.866 118.405 79.082 119.185 79.514C119.965 79.934 120.577 80.534 121.021 81.314C121.477 82.094 121.705 82.994 121.705 84.014C121.705 85.034 121.471 85.934 121.003 86.714C120.547 87.494 119.923 88.1 119.131 88.532C118.351 88.952 117.475 89.162 116.503 89.162ZM116.503 86.966C116.959 86.966 117.385 86.858 117.781 86.642C118.189 86.414 118.513 86.078 118.753 85.634C118.993 85.19 119.113 84.65 119.113 84.014C119.113 83.066 118.861 82.34 118.357 81.836C117.865 81.32 117.259 81.062 116.539 81.062C115.819 81.062 115.213 81.32 114.721 81.836C114.241 82.34 114.001 83.066 114.001 84.014C114.001 84.962 114.235 85.694 114.703 86.21C115.183 86.714 115.783 86.966 116.503 86.966ZM127.982 89.162C127.022 89.162 126.158 88.952 125.39 88.532C124.622 88.1 124.016 87.494 123.572 86.714C123.14 85.934 122.924 85.034 122.924 84.014C122.924 82.994 123.146 82.094 123.59 81.314C124.046 80.534 124.664 79.934 125.444 79.514C126.224 79.082 127.094 78.866 128.054 78.866C129.014 78.866 129.884 79.082 130.664 79.514C131.444 79.934 132.056 80.534 132.5 81.314C132.956 82.094 133.184 82.994 133.184 84.014C133.184 85.034 132.95 85.934 132.482 86.714C132.026 87.494 131.402 88.1 130.61 88.532C129.83 88.952 128.954 89.162 127.982 89.162ZM127.982 86.966C128.438 86.966 128.864 86.858 129.26 86.642C129.668 86.414 129.992 86.078 130.232 85.634C130.472 85.19 130.592 84.65 130.592 84.014C130.592 83.066 130.34 82.34 129.836 81.836C129.344 81.32 128.738 81.062 128.018 81.062C127.298 81.062 126.692 81.32 126.2 81.836C125.72 82.34 125.48 83.066 125.48 84.014C125.48 84.962 125.714 85.694 126.182 86.21C126.662 86.714 127.262 86.966 127.982 86.966ZM140.558 78.884C141.746 78.884 142.706 79.262 143.438 80.018C144.17 80.762 144.536 81.806 144.536 83.15V89H142.016V83.492C142.016 82.7 141.818 82.094 141.422 81.674C141.026 81.242 140.486 81.026 139.802 81.026C139.106 81.026 138.554 81.242 138.146 81.674C137.75 82.094 137.552 82.7 137.552 83.492V89H135.032V79.028H137.552V80.27C137.888 79.838 138.314 79.502 138.83 79.262C139.358 79.01 139.934 78.884 140.558 78.884Z" fill="#323238"/>
</g>
<defs>
<linearGradient id="paint0_linear_1450_925" x1="72.0104" y1="88.9514" x2="95.9104" y2="88.9514" gradientUnits="userSpaceOnUse">
<stop stop-color="#50BA84"/>
<stop offset="1" stop-color="#15ABD0"/>
</linearGradient>
<clipPath id="clip0_1450_925">
<rect x="0.5" width="166" height="166" rx="83" fill="white"/>
</clipPath>
<clipPath id="clip1_1450_925">
<rect width="99" height="62" fill="white" transform="translate(33.5 52)"/>
</clipPath>
</defs>
</svg>
